<svg xmlns="http://www.w3.org/2000/svg" width="120" height="120" viewBox="0 0 120 120">
  <!-- 背景圆形 -->
  <circle cx="60" cy="60" r="55" fill="#3498db"/>
  
  <!-- 表格图案 -->
  <rect x="35" y="30" width="50" height="40" fill="white" opacity="0.9" rx="3" ry="3"/>
  
  <!-- 表格行 -->
  <line x1="35" y1="42" x2="85" y2="42" stroke="#3498db" stroke-width="2"/>
  <line x1="35" y1="54" x2="85" y2="54" stroke="#3498db" stroke-width="2"/>
  <line x1="35" y1="66" x2="85" y2="66" stroke="#3498db" stroke-width="2"/>
  
  <!-- 表格列 -->
  <line x1="50" y1="30" x2="50" y2="70" stroke="#3498db" stroke-width="2"/>
  <line x1="65" y1="30" x2="65" y2="70" stroke="#3498db" stroke-width="2"/>
  
  <!-- 数据符号 -->
  <rect x="40" y="35" width="6" height="4" fill="#3498db" rx="1" ry="1"/>
  <rect x="55" y="35" width="6" height="4" fill="#3498db" rx="1" ry="1"/>
  <rect x="70" y="35" width="6" height="4" fill="#3498db" rx="1" ry="1"/>
  
  <rect x="40" y="47" width="6" height="4" fill="#3498db" rx="1" ry="1"/>
  <rect x="55" y="47" width="6" height="4" fill="#3498db" rx="1" ry="1"/>
  <rect x="70" y="47" width="6" height="4" fill="#3498db" rx="1" ry="1"/>
  
  <rect x="40" y="59" width="6" height="4" fill="#3498db" rx="1" ry="1"/>
  <rect x="55" y="59" width="6" height="4" fill="#3498db" rx="1" ry="1"/>
  <rect x="70" y="59" width="6" height="4" fill="#3498db" rx="1" ry="1"/>
  
  <!-- 箭头 - 表示数据转换 -->
  <path d="M80 85 L60 75 L40 85" stroke="white" stroke-width="3" fill="none" marker-end="url(#arrowhead)"/>
  
  <!-- 转换后的表格 -->
  <rect x="45" y="80" width="30" height="25" fill="white" opacity="0.9" rx="3" ry="3"/>
  <line x1="55" y1="80" x2="55" y2="105" stroke="#3498db" stroke-width="2"/>
  <line x1="65" y1="80" x2="65" y2="105" stroke="#3498db" stroke-width="2"/>
  
  <rect x="48" y="85" width="4" height="4" fill="#3498db" rx="1" ry="1"/>
  <rect x="58" y="85" width="4" height="4" fill="#3498db" rx="1" ry="1"/>
  <rect x="68" y="85" width="4" height="4" fill="#3498db" rx="1" ry="1"/>
  
  <rect x="48" y="95" width="4" height="4" fill="#3498db" rx="1" ry="1"/>
  <rect x="58" y="95" width="4" height="4" fill="#3498db" rx="1" ry="1"/>
  <rect x="68" y="95" width="4" height="4" fill="#3498db" rx="1" ry="1"/>
  
  <!-- 箭头标记定义 -->
  <defs>
    <marker id="arrowhead" markerWidth="10" markerHeight="7" refX="0" refY="3.5" orient="auto">
      <polygon points="0 0, 10 3.5, 0 7" fill="white"/>
    </marker>
  </defs>
</svg>